<?xml version="1.0" encoding="UTF-8"?>
<svg version="1.1" xmlns="http://www.w3.org/2000/svg" width="512" height="512">
<path d="M0 0 C1.01790619 0.00215515 2.03581238 0.0043103 3.08456421 0.00653076 C17.69363523 0.05620146 32.02575853 0.30709809 46.375 3.3125 C47.34985352 3.51117676 48.32470703 3.70985352 49.32910156 3.91455078 C97.7109774 14.03517194 141.69928269 35.9516877 177.375 70.3125 C178.3640332 71.26068604 178.3640332 71.26068604 179.37304688 72.22802734 C188.86130305 81.37247479 197.6012044 90.66984009 205.375 101.3125 C206.23306152 102.46355017 207.09113451 103.61459177 207.94921875 104.765625 C213.98736829 112.95680614 219.34595521 121.47054105 224.375 130.3125 C224.73948242 130.94430176 225.10396484 131.57610352 225.47949219 132.22705078 C247.08534998 169.97532572 256.85198095 212.74189997 256.6875 255.9375 C256.68534485 256.95540619 256.6831897 257.97331238 256.68096924 259.02206421 C256.63129854 273.63113523 256.38040191 287.96325853 253.375 302.3125 C253.07698486 303.77478027 253.07698486 303.77478027 252.77294922 305.26660156 C242.65232806 353.6484774 220.7358123 397.63678269 186.375 433.3125 C185.74287598 433.97185547 185.11075195 434.63121094 184.45947266 435.31054688 C175.31502521 444.79880305 166.01765991 453.5387044 155.375 461.3125 C154.22394983 462.17056152 153.07290823 463.02863451 151.921875 463.88671875 C143.73224019 469.92427396 135.22961724 475.30707302 126.375 480.3125 C125.66778809 480.7146875 124.96057617 481.116875 124.23193359 481.53125 C101.09654164 494.5566741 75.92537591 503.30551461 49.9375 508.625 C49.21860596 508.77235596 48.49971191 508.91971191 47.7590332 509.0715332 C33.08339502 511.86090125 18.55831162 512.66142619 3.64770508 512.62817383 C0.70811513 512.6250221 -2.2304558 512.64854926 -5.16992188 512.67382812 C-18.54306192 512.71848737 -31.43916711 511.51301542 -44.625 509.3125 C-46.33055054 509.03031616 -46.33055054 509.03031616 -48.07055664 508.74243164 C-91.33802759 500.97044532 -132.38793216 480.98345309 -165.625 452.3125 C-166.37007813 451.67828125 -167.11515625 451.0440625 -167.8828125 450.390625 C-181.38779833 438.57948485 -194.05918743 425.82889772 -204.625 411.3125 C-205.48149066 410.16255169 -206.33826433 409.01281411 -207.1953125 407.86328125 C-213.23534209 399.67315742 -218.61867614 391.16870382 -223.625 382.3125 C-224.0271875 381.60528809 -224.429375 380.89807617 -224.84375 380.16943359 C-237.8691741 357.03404164 -246.61801461 331.86287591 -251.9375 305.875 C-252.08485596 305.15610596 -252.23221191 304.43721191 -252.3840332 303.6965332 C-255.35789088 288.05024391 -255.99800362 272.57681954 -255.9375 256.6875 C-255.93534485 255.66959381 -255.9331897 254.65168762 -255.93096924 253.60293579 C-255.88129854 238.99386477 -255.63040191 224.66174147 -252.625 210.3125 C-252.42632324 209.33764648 -252.22764648 208.36279297 -252.02294922 207.35839844 C-241.90232806 158.9765226 -219.9858123 114.98821731 -185.625 79.3125 C-184.99287598 78.65314453 -184.36075195 77.99378906 -183.70947266 77.31445312 C-174.56502521 67.82619695 -165.26765991 59.0862956 -154.625 51.3125 C-153.47394983 50.45443848 -152.32290823 49.59636549 -151.171875 48.73828125 C-142.98224019 42.70072604 -134.47961724 37.31792698 -125.625 32.3125 C-124.91778809 31.9103125 -124.21057617 31.508125 -123.48193359 31.09375 C-100.34654164 18.0683259 -75.17537591 9.31948539 -49.1875 4 C-48.46860596 3.85264404 -47.74971191 3.70528809 -47.0090332 3.5534668 C-31.36274391 0.57960912 -15.88931954 -0.06050362 0 0 Z " fill="#656FAA" transform="translate(255.625,-0.3125)"/>
<path d="M0 0 C0 58.41 0 116.82 0 177 C-8.58 177 -17.16 177 -26 177 C-26.99 180.3 -27.98 183.6 -29 187 C-29.61026132 188.71471362 -30.24347613 190.42182434 -30.91918945 192.11181641 C-31.26918503 192.99343948 -31.6191806 193.87506256 -31.9797821 194.78340149 C-32.35383682 195.71339462 -32.72789154 196.64338776 -33.11328125 197.6015625 C-33.51581619 198.61272629 -33.91835114 199.62389008 -34.33308411 200.66569519 C-35.20244434 202.84837796 -36.0736734 205.03031714 -36.94659424 207.21157837 C-39.29972442 213.09209055 -41.63883716 218.97818321 -43.98046875 224.86328125 C-44.46862061 226.08893295 -44.95677246 227.31458466 -45.4597168 228.57737732 C-50.56723435 241.40468792 -55.62287371 254.25229747 -60.66879272 267.10394287 C-62.10433509 270.7598722 -63.54102594 274.41534876 -64.9777832 278.07080078 C-65.86288848 280.32450676 -66.74790295 282.57824841 -67.6328125 284.83203125 C-68.03192337 285.84750534 -68.43103424 286.86297943 -68.84223938 287.90922546 C-70.93990874 293.2568035 -72.99905932 298.61545509 -75 304 C-75.66 304 -76.32 304 -77 304 C-83.4740112 288.39970158 -89.68926491 272.71686421 -95.71908569 256.94052124 C-102.73321366 238.59664333 -109.92125348 220.32178466 -117.12059307 202.05004215 C-117.83544001 200.23559673 -118.54997895 198.42102998 -119.26451111 196.60646057 C-120.14742391 194.36465344 -121.0310678 192.12313407 -121.9155426 189.88194275 C-122.3080571 188.88546219 -122.70057159 187.88898163 -123.10498047 186.86230469 C-123.44834442 185.99176453 -123.79170837 185.12122437 -124.14547729 184.2243042 C-124.80817335 182.49932065 -125.41564272 180.75307184 -126 179 C-135.24 178.67 -144.48 178.34 -154 178 C-154 229.48 -154 280.96 -154 334 C-147.07 334 -140.14 334 -133 334 C-133 294.07 -133 254.14 -133 213 C-130.27206831 216.63724225 -128.9038166 219.33374811 -127.26171875 223.50390625 C-126.99212845 224.18274368 -126.72253815 224.86158112 -126.44477844 225.56098938 C-125.520111 227.89266077 -124.60395556 230.22758991 -123.6875 232.5625 C-122.65945284 235.16255665 -121.62921449 237.76173896 -120.59890747 240.36090088 C-119.81197939 242.3464253 -119.02577993 244.33223861 -118.24020386 246.31829834 C-114.62071969 255.46070785 -110.96186212 264.58706811 -107.29694557 273.71133995 C-105.23514072 278.84509282 -103.1753324 283.97964729 -101.11517239 289.1140604 C-99.38174908 293.43370637 -97.64728446 297.75292889 -95.91073608 302.07131958 C-94.24946952 306.2029304 -92.59157447 310.33587906 -90.93608665 314.46980858 C-90.31482071 316.01943089 -89.69232504 317.56856079 -89.06856728 319.11718178 C-88.2092068 321.25118225 -87.35408564 323.38683326 -86.5 325.52294922 C-86.0153125 326.73022675 -85.530625 327.93750427 -85.03125 329.18136597 C-84 332 -84 332 -84 334 C-79.05 333.67 -74.1 333.34 -69 333 C-59.2281009 309.12611218 -49.45852113 285.25250998 -39.90917969 261.28857422 C-34.0128986 246.49588751 -28.01203427 231.74595736 -22 217 C-21.67 217 -21.34 217 -21 217 C-21 255.94 -21 294.88 -21 335 C-14.07 335 -7.14 335 0 335 C0 393.41 0 451.82 0 512 C-15.55998569 512 -29.88009619 511.69434492 -45 509 C-45.91185059 508.83902832 -46.82370117 508.67805664 -47.76318359 508.51220703 C-91.36461429 500.53941775 -132.44282799 480.94708129 -166 452 C-166.74507813 451.36578125 -167.49015625 450.7315625 -168.2578125 450.078125 C-181.76279833 438.26698485 -194.43418743 425.51639772 -205 411 C-205.85649066 409.85005169 -206.71326433 408.70031411 -207.5703125 407.55078125 C-213.61034209 399.36065742 -218.99367614 390.85620382 -224 382 C-224.4021875 381.29278809 -224.804375 380.58557617 -225.21875 379.85693359 C-238.2441741 356.72154164 -246.99301461 331.55037591 -252.3125 305.5625 C-252.45985596 304.84360596 -252.60721191 304.12471191 -252.7590332 303.3840332 C-255.73289088 287.73774391 -256.37300362 272.26431954 -256.3125 256.375 C-256.31034485 255.35709381 -256.3081897 254.33918762 -256.30596924 253.29043579 C-256.25629854 238.68136477 -256.00540191 224.34924147 -253 210 C-252.80132324 209.02514648 -252.60264648 208.05029297 -252.39794922 207.04589844 C-242.27732806 158.6640226 -220.3608123 114.67571731 -186 79 C-185.36787598 78.34064453 -184.73575195 77.68128906 -184.08447266 77.00195312 C-174.94002521 67.51369695 -165.64265991 58.7737956 -155 51 C-153.84894983 50.14193848 -152.69790823 49.28386549 -151.546875 48.42578125 C-143.35724019 42.38822604 -134.85461724 37.00542698 -126 32 C-125.29278809 31.5978125 -124.58557617 31.195625 -123.85693359 30.78125 C-97.9229405 16.18018945 -69.33516936 6.81800319 -40 2 C-39.29391602 1.88285645 -38.58783203 1.76571289 -37.86035156 1.64501953 C-25.12404774 -0.37561519 -13.0611289 0 0 0 Z " fill="#4B5896" transform="translate(256,0)"/>
<path d="M0 0 C79.16970131 0 79.16970131 0 99.0625 18.5 C111.26155708 31.13541526 117.12294922 47.53756599 117.203125 64.91015625 C117.20882507 65.87344345 117.21452515 66.83673065 117.22039795 67.82920837 C117.2298302 69.86749175 117.23637487 71.90579025 117.24023438 73.9440918 C117.24989027 77.02746061 117.28091023 80.11014822 117.3125 83.19335938 C117.36651299 93.15413355 117.38388059 102.49403479 114 112 C113.61199219 113.14855469 113.22398437 114.29710937 112.82421875 115.48046875 C105.83888372 132.11564805 94.85765649 144.05072798 78.125 151.1875 C51.06823442 160.75635612 34.28039281 156 0 156 C0 104.52 0 53.04 0 0 Z " fill="#6670AA" transform="translate(293,178)"/>
<path d="M0 0 C9.24 0 18.48 0 28 0 C33.75202423 13.80485816 33.75202423 13.80485816 36.13671875 19.8671875 C36.41354996 20.56833679 36.69038116 21.26948608 36.9756012 21.99188232 C37.88079955 24.28577121 38.7842199 26.58035514 39.6875 28.875 C40.33753533 30.52393752 40.98760124 32.17286298 41.63769531 33.82177734 C47.63380303 49.03899528 53.59558364 64.26969618 59.54711914 79.50439453 C62.87894959 88.03213364 66.21420698 96.55825709 69.5859375 105.0703125 C70.11297093 106.40282602 70.6399898 107.7353453 71.16699219 109.06787109 C72.11006339 111.44955226 73.05584537 113.83016259 74.00488281 116.20947266 C74.40803711 117.22831543 74.81119141 118.2471582 75.2265625 119.296875 C75.57283691 120.16666992 75.91911133 121.03646484 76.27587891 121.93261719 C77 124 77 124 77 126 C77.66 126 78.32 126 79 126 C79.10908691 125.32622314 79.21817383 124.65244629 79.33056641 123.95825195 C80.13768659 120.39155786 81.38832202 117.06680242 82.7109375 113.66796875 C83.13043671 112.57656837 83.13043671 112.57656837 83.55841064 111.46311951 C84.49294989 109.03621983 85.43376056 106.61180826 86.375 104.1875 C87.04225849 102.46081475 87.709411 100.73408854 88.37646484 99.00732422 C95.67671135 80.14423237 103.14423048 61.34688252 110.61114502 42.54931641 C113.10943751 36.25597036 115.59240595 29.95680763 118.0625 23.65234375 C118.37142181 22.86456543 118.68034363 22.07678711 118.99862671 21.26513672 C120.730185 16.84898386 120.730185 16.84898386 122.45635986 12.4307251 C123.21090446 10.49592008 123.96843296 8.5623087 124.7265625 6.62890625 C125.14502441 5.55713135 125.56348633 4.48535645 125.99462891 3.38110352 C127 1 127 1 128 0 C136.58 0 145.16 0 154 0 C154 51.48 154 102.96 154 156 C147.07 156 140.14 156 133 156 C132.67 118.05 132.34 80.1 132 41 C128.04 50.9 124.08 60.8 120 71 C116.62713234 79.37893719 113.25350552 87.75748666 109.87231445 96.13305664 C108.43307712 99.69845674 106.99481662 103.2642498 105.55664062 106.83007812 C103.19205667 112.69111848 100.82377886 118.55065442 98.45281982 124.40911865 C97.44963144 126.8886625 96.44714928 129.36848131 95.44561768 131.84869385 C93.91602224 135.63604906 92.38201386 139.42160279 90.84765625 143.20703125 C90.37557236 144.37707199 89.90348846 145.54711273 89.417099 146.75260925 C88.98305252 147.82142838 88.54900604 148.8902475 88.10180664 149.99145508 C87.7190004 150.93716873 87.33619415 151.88288239 86.94178772 152.85725403 C86 155 86 155 85 156 C82.46950598 156.07313567 79.96695163 156.09247527 77.4375 156.0625 C76.37112305 156.05573242 76.37112305 156.05573242 75.28320312 156.04882812 C73.52209987 156.03700864 71.76103964 156.01907263 70 156 C69.64938004 155.12860382 69.29876007 154.25720764 68.93751526 153.35940552 C65.54382931 144.92524033 62.14967169 136.49126508 58.75511265 128.05745125 C57.01222452 123.72719025 55.26947299 119.3968744 53.52709961 115.06640625 C43.05111174 89.03077542 32.52952223 63.01411375 22 37 C21.67 76.27 21.34 115.54 21 156 C14.07 156 7.14 156 0 156 C0 104.52 0 53.04 0 0 Z " fill="#FDFDFE" transform="translate(102,178)"/>
<path d="M0 0 C79.16970131 0 79.16970131 0 99.0625 18.5 C111.26155708 31.13541526 117.12294922 47.53756599 117.203125 64.91015625 C117.20882507 65.87344345 117.21452515 66.83673065 117.22039795 67.82920837 C117.2298302 69.86749175 117.23637487 71.90579025 117.24023438 73.9440918 C117.24989027 77.02746061 117.28091023 80.11014822 117.3125 83.19335938 C117.36651299 93.15413355 117.38388059 102.49403479 114 112 C113.61199219 113.14855469 113.22398437 114.29710937 112.82421875 115.48046875 C105.83888372 132.11564805 94.85765649 144.05072798 78.125 151.1875 C51.06823442 160.75635612 34.28039281 156 0 156 C0 104.52 0 53.04 0 0 Z M21 16 C21 56.92 21 97.84 21 140 C53.72151592 141.6821958 53.72151592 141.6821958 81.6875 128.0625 C94.42751212 114.4881862 96.53295145 97.46596341 96.44604492 79.71899414 C96.43752521 77.07033695 96.46640387 74.42383675 96.49804688 71.77539062 C96.56584131 55.43607168 93.33507404 40.60085325 81.875 28.1875 C64.92099858 12.28778102 43.39681603 16 21 16 Z " fill="#FEFEFE" transform="translate(293,178)"/>
</svg>
